<svg width="24" height="24" viewBox="0 0 24 24" fill="none" xmlns="http://www.w3.org/2000/svg">
<path fill-rule="evenodd" clip-rule="evenodd" d="M8.27208 1C7.74165 1 7.23294 1.21071 6.85786 1.58579L1.58579 6.85786C1.21071 7.23294 1 7.74164 1 8.27208V15.7279C1 16.2584 1.21071 16.7671 1.58579 17.1421L6.85786 22.4142C7.23294 22.7893 7.74164 23 8.27208 23H15.7279C16.2584 23 16.7671 22.7893 17.1421 22.4142L22.4142 17.1421C22.7893 16.7671 23 16.2584 23 15.7279V8.27208C23 7.74164 22.7893 7.23294 22.4142 6.85786L17.1421 1.58579C16.7671 1.21071 16.2584 1 15.7279 1H8.27208ZM16.7071 7.29289C17.0976 7.68342 17.0976 8.31658 16.7071 8.70711L13.4142 12L16.7071 15.2929C17.0976 15.6834 17.0976 16.3166 16.7071 16.7071C16.3166 17.0976 15.6834 17.0976 15.2929 16.7071L12 13.4142L8.70711 16.7071C8.31658 17.0976 7.68342 17.0976 7.29289 16.7071C6.90237 16.3166 6.90237 15.6834 7.29289 15.2929L10.5858 12L7.29289 8.70711C6.90237 8.31658 6.90237 7.68342 7.29289 7.29289C7.68342 6.90237 8.31658 6.90237 8.70711 7.29289L12 10.5858L15.2929 7.29289C15.6834 6.90237 16.3166 6.90237 16.7071 7.29289Z" fill="#CC6677"/>
</svg>
